<svg width="24" height="24" viewBox="0 0 24 24" fill="none" xmlns="http://www.w3.org/2000/svg">
<path fill-rule="evenodd" clip-rule="evenodd" d="M12.041 1.58625C12.6411 1.59109 13.2313 1.87479 13.7558 2.24445C14.3544 2.66632 14.9722 3.27258 15.58 3.98664C16.7985 5.41801 18.0525 7.37143 19.1211 9.42023C20.1898 11.4694 21.0917 13.6495 21.5879 15.5423C21.8356 16.4874 21.9884 17.3855 22.0019 18.1712C22.015 18.9424 21.8946 19.6913 21.5127 20.265C20.7462 21.4145 19.848 22.0903 18.8447 22.3235C17.852 22.554 16.8706 22.3241 15.9814 21.8997C14.5069 21.196 13.1069 19.8659 12.0009 18.7112C10.8951 19.8657 9.4955 21.1953 8.02145 21.8987C7.13231 22.323 6.15076 22.553 5.15817 22.3226C4.15512 22.0892 3.25652 21.4132 2.4902 20.264C2.10851 19.6904 1.98788 18.9412 2.00094 18.1702C2.01446 17.3846 2.16733 16.4863 2.41501 15.5413C2.9112 13.6485 3.81309 11.4684 4.8818 9.41925C5.9504 7.37044 7.20439 5.41704 8.42282 3.98566C9.03069 3.27158 9.64847 2.66537 10.247 2.24347C10.7945 1.85765 11.4138 1.56549 12.041 1.58625ZM11.9756 2.94074C11.7852 2.94222 11.4733 3.03823 11.0283 3.35187C10.5578 3.68352 10.0233 4.19703 9.45504 4.86457C8.32117 6.19666 7.12111 8.05768 6.08395 10.0462C5.04696 12.0345 4.18982 14.1179 3.72653 15.8851C3.49481 16.7692 3.36746 17.5528 3.35641 18.1927C3.34531 18.8454 3.4577 19.2703 3.61813 19.512C4.24833 20.4571 4.88373 20.8669 5.46481 21.0023C6.05677 21.1397 6.71448 21.021 7.43747 20.6761C8.74749 20.0509 10.0568 18.7912 11.1757 17.6126C10.1441 16.3724 9.26075 14.7973 9.04684 13.4134C8.92464 12.621 9.00685 11.7768 9.54977 11.1273C10.0675 10.5081 10.8843 10.2109 11.9121 10.18V10.1751C11.9373 10.1751 11.9623 10.1768 11.9873 10.1771C12.0216 10.1765 12.056 10.1741 12.0908 10.1741V10.181C13.1187 10.2118 13.9353 10.509 14.4531 11.1282C14.9961 11.7779 15.0783 12.6219 14.956 13.4144C14.7421 14.7985 13.8589 16.3733 12.8271 17.6136C13.946 18.7921 15.2554 20.0518 16.5654 20.6771C17.2885 21.0221 17.946 21.1407 18.5381 21.0032C19.1193 20.868 19.7543 20.4585 20.3847 19.513C20.5453 19.2714 20.6576 18.8468 20.6465 18.1937C20.6354 17.5538 20.5081 16.7703 20.2763 15.8861C19.8131 14.1188 18.9559 12.0355 17.9189 10.0472C16.8818 8.05868 15.6817 6.19762 14.5478 4.86554C13.9796 4.19804 13.4451 3.68447 12.9746 3.35285C12.487 3.00928 12.1598 2.92545 11.9765 2.94269L11.9756 2.94074ZM11.9873 11.5325C11.162 11.5504 10.7728 11.7778 10.5898 11.9964C10.3952 12.2292 10.2947 12.6158 10.3857 13.2064C10.537 14.185 11.1716 15.4153 12.0009 16.4798C12.8304 15.4153 13.4659 14.1861 13.6172 13.2073C13.7083 12.6166 13.6077 12.2302 13.4131 11.9974C13.2279 11.7762 12.8322 11.5456 11.9873 11.5325Z" fill="#5D5D5D"/>
</svg>
