<svg width="44" height="44" viewBox="0 0 44 44" fill="none" xmlns="http://www.w3.org/2000/svg">
<path d="M32.083 27.5002V15.698C32.083 13.673 30.4414 12.0314 28.4163 12.0314H10.9997M32.083 27.5002H32.9997C35.0247 27.5002 36.6663 25.8585 36.6663 23.8335V11.0002C36.6663 8.97511 35.0247 7.3335 32.9997 7.3335H14.6663C12.6413 7.3335 10.9997 8.97512 10.9997 11.0002V12.0314M32.083 27.5002C32.083 29.5252 30.4414 31.1668 28.4163 31.1668H23.6993C22.6576 31.1668 21.7054 31.7553 21.2396 32.687L20.1663 34.8335L19.0931 32.687C18.6273 31.7553 17.675 31.1668 16.6334 31.1668H10.9997C8.97463 31.1668 7.33301 29.5252 7.33301 27.5002V15.698C7.33301 13.673 8.97463 12.0314 10.9997 12.0314M12 18.3335H21M12 22.9168H27" stroke="black" stroke-width="1.83333" stroke-linecap="round" stroke-linejoin="round"/>
</svg>
