<svg width="16" height="16" viewBox="0 0 16 16" fill="none" xmlns="http://www.w3.org/2000/svg">
<path d="M11.1785 4.81451C11.3736 5.00979 11.3737 5.32643 11.1785 5.52162L8.70642 7.99373L11.1847 10.4721C11.3797 10.6673 11.3799 10.984 11.1847 11.1792C10.9895 11.374 10.6728 11.3741 10.4776 11.1792L7.99931 8.70084L5.52167 11.1785C5.32646 11.3734 5.00977 11.3734 4.81457 11.1785C4.61938 10.9833 4.61955 10.6666 4.81457 10.4714L7.2922 7.99373L4.82078 5.52231C4.62563 5.32716 4.62584 5.01049 4.82078 4.8152C5.01604 4.61994 5.33263 4.61994 5.52789 4.8152L7.99931 7.28663L10.4714 4.81451C10.6667 4.61925 10.9833 4.61925 11.1785 4.81451Z" fill="black"/>
</svg>
